<svg width="112" height="112" viewBox="0 0 112 112" fill="none" xmlns="http://www.w3.org/2000/svg">
<g clip-path="url(#clip0_3903_25729)">
<rect width="112" height="112" fill="#E5F8F0"/>
<circle cx="56" cy="56" r="56" fill="#E5F8F0"/>
<path opacity="0.35" d="M67.391 65.7359C72.3115 62.1896 75.5259 56.4271 75.5259 49.8982C75.5259 39.1152 66.7833 30.3726 56.0002 30.3726C45.2172 30.3726 36.4746 39.1152 36.4746 49.8982C36.4746 56.4271 39.689 62.1896 44.6095 65.7359L46.1788 71.8645H65.8216L67.391 65.7359Z" fill="#00b671"/>
<path d="M64.7276 76.1213L65.8186 71.8647H46.1758L47.2643 76.1213C48.0942 79.3601 51.0133 81.6276 54.357 81.6276H57.6349C60.9811 81.6276 63.9002 79.3601 64.7276 76.1213Z" fill="#00b671"/>
<path d="M77.9641 35.254C79.3121 35.254 80.4048 34.1612 80.4048 32.8133C80.4048 31.4653 79.3121 30.3726 77.9641 30.3726C76.6162 30.3726 75.5234 31.4653 75.5234 32.8133C75.5234 34.1612 76.6162 35.254 77.9641 35.254Z" fill="#00b671"/>
<path d="M34.0325 35.254C35.3805 35.254 36.4732 34.1612 36.4732 32.8133C36.4732 31.4653 35.3805 30.3726 34.0325 30.3726C32.6845 30.3726 31.5918 31.4653 31.5918 32.8133C31.5918 34.1612 32.6845 35.254 34.0325 35.254Z" fill="#00b671"/>
<path d="M77.9641 69.4239C79.3121 69.4239 80.4048 68.3311 80.4048 66.9832C80.4048 65.6352 79.3121 64.5425 77.9641 64.5425C76.6162 64.5425 75.5234 65.6352 75.5234 66.9832C75.5234 68.3311 76.6162 69.4239 77.9641 69.4239Z" fill="#00b671"/>
<path d="M34.0325 69.4239C35.3805 69.4239 36.4732 68.3311 36.4732 66.9832C36.4732 65.6352 35.3805 64.5425 34.0325 64.5425C32.6845 64.5425 31.5918 65.6352 31.5918 66.9832C31.5918 68.3311 32.6845 69.4239 34.0325 69.4239Z" fill="#00b671"/>
<path d="M82.8489 52.3384C84.1969 52.3384 85.2896 51.2457 85.2896 49.8977C85.2896 48.5498 84.1969 47.457 82.8489 47.457C81.5009 47.457 80.4082 48.5498 80.4082 49.8977C80.4082 51.2457 81.5009 52.3384 82.8489 52.3384Z" fill="#00b671"/>
<path d="M29.1516 52.3384C30.4996 52.3384 31.5923 51.2457 31.5923 49.8977C31.5923 48.5498 30.4996 47.457 29.1516 47.457C27.8037 47.457 26.7109 48.5498 26.7109 49.8977C26.7109 51.2457 27.8037 52.3384 29.1516 52.3384Z" fill="#00b671"/>
</g>
<defs>
<clipPath id="clip0_3903_25729">
<rect width="112" height="112" fill="white"/>
</clipPath>
</defs>
</svg>
