<svg width="112" height="112" viewBox="0 0 112 112" fill="none" xmlns="http://www.w3.org/2000/svg">
<g clip-path="url(#clip0_3903_25728)">
<rect width="112" height="112" fill="#E5F8F0"/>
<circle cx="56" cy="56" r="56" fill="#E5F8F0"/>
<path opacity="0.35" d="M73.8502 49.5103C73.0129 49.5103 72.2179 49.6725 71.4585 49.9094C69.5601 44.0455 64.1213 39.7749 57.6246 39.7749C55.9046 39.7749 54.2821 40.1254 52.7504 40.6706C51.7931 40.1156 50.6962 39.7749 49.5118 39.7749C45.9259 39.7749 43.0215 42.6793 43.0215 46.2651C43.0215 46.3203 43.0377 46.3755 43.0377 46.4306C42.499 46.3528 41.9604 46.2651 41.3989 46.2651C35.1261 46.2651 30.041 51.3503 30.041 57.6231C30.041 63.8959 35.1261 68.981 41.3989 68.981C44.3066 68.981 46.9319 67.855 48.9406 66.0572C51.3745 67.8712 54.3567 68.981 57.6246 68.981C62.0671 68.981 65.997 66.9561 68.6775 63.8245C70.0826 64.9992 71.8739 65.7359 73.8502 65.7359C78.3317 65.7359 81.963 62.1046 81.963 57.6231C81.963 53.1416 78.3317 49.5103 73.8502 49.5103Z" fill="#00b671"/>
<path d="M56.0029 52.7559C57.7952 52.7559 59.2481 51.303 59.2481 49.5107C59.2481 47.7185 57.7952 46.2656 56.0029 46.2656C54.2107 46.2656 52.7578 47.7185 52.7578 49.5107C52.7578 51.303 54.2107 52.7559 56.0029 52.7559Z" fill="#00b671"/>
<path d="M78.7169 56.001H46.2657C46.2657 54.2097 44.8118 52.7559 43.0205 52.7559C41.2292 52.7559 39.7754 54.2097 39.7754 56.001H33.2852C29.6993 56.001 26.7949 58.9054 26.7949 62.4912C26.7949 76.8282 38.419 88.4522 52.7559 88.4522H59.2462C73.5831 88.4522 85.2071 76.8282 85.2071 62.4912C85.2071 58.9054 82.3028 56.001 78.7169 56.001Z" fill="#00b671"/>
<path d="M82.6019 24.1109C80.2297 22.8582 77.2832 23.7669 76.0305 26.1488L67.0059 43.2928C69.0341 45.0354 70.6079 47.2973 71.4517 49.9096C72.2143 49.6727 73.0093 49.5104 73.8466 49.5104C74.1354 49.5104 74.408 49.5656 74.6903 49.5948L84.6431 30.6855C85.8957 28.3036 84.9838 25.3635 82.6019 24.1109Z" fill="#00b671"/>
</g>
<defs>
<clipPath id="clip0_3903_25728">
<rect width="112" height="112" fill="white"/>
</clipPath>
</defs>
</svg>
