<svg width="112" height="112" viewBox="0 0 112 112" fill="none" xmlns="http://www.w3.org/2000/svg">
<g clip-path="url(#clip0_3903_25725)">
<rect width="112" height="112" fill="#E5F8F0"/>
<circle cx="56" cy="56" r="56" fill="#E5F8F0"/>
<path opacity="0.35" d="M52.6172 28.8915C52.6172 33.5677 56.4062 37.3601 61.079 37.3601C65.762 37.3601 69.5476 33.5677 69.5476 28.8915C69.5476 24.2221 65.762 20.4297 61.079 20.4297C56.4062 20.4297 52.6172 24.2221 52.6172 28.8915Z" fill="#00b671"/>
<path d="M62.4705 51.4124L60.3372 59.4036C57.0189 56.2546 52.5154 54.2906 47.5378 54.2906C46.3527 54.2906 45.2014 54.3922 44.084 54.6292L46.1156 47.0105C47.3346 42.507 51.9736 39.832 56.5109 41.051C61.0144 42.2361 63.6895 46.8751 62.4705 51.4124Z" fill="#B3E8D4"/>
<path opacity="0.35" d="M77.3675 81.6163C76.995 81.7517 76.6564 81.7856 76.3178 81.7856C74.8956 81.7856 73.5751 80.8036 73.101 79.4492L69.5456 71.221H66.0579C65.787 67.9365 64.6358 64.9229 62.875 62.3833L73.6089 64.5165C74.794 64.7536 75.776 65.6339 76.1485 66.7852L79.5346 77.3837C80.1102 79.1445 79.1282 81.0745 77.3675 81.6163Z" fill="#00b671"/>
<path d="M57.6285 44.1322C57.6285 45.9945 56.1047 47.5183 54.2424 47.5183C52.7525 47.5183 46.9961 48.8727 41.7138 50.2949L39.8176 55.9835C37.4812 57.0332 35.4157 58.5569 33.7227 60.4531C32.5375 59.5728 31.9958 58.049 32.4698 56.593L35.8559 46.4347C36.2284 45.385 37.0749 44.5724 38.1584 44.2676C40.224 43.6581 50.8224 40.7461 54.2424 40.7461C56.1047 40.7461 57.6285 42.2698 57.6285 44.1322Z" fill="#B3E8D4"/>
<path d="M79.7054 84.7654L71.3079 84.7992L65.6227 77.2855C65.9613 75.8836 66.1611 74.4242 66.1611 72.914C66.1611 62.6271 57.8245 54.2905 47.5376 54.2905C37.2506 54.2905 28.9141 62.6271 28.9141 72.914C28.9141 83.201 37.2506 91.5375 47.5376 91.5375C53.5953 91.5375 58.9589 88.6255 62.3585 84.1423L66.9399 90.217C67.5832 91.0635 68.5652 91.5714 69.6149 91.5714C69.6488 91.5714 69.6487 91.5714 69.6487 91.5714L79.7054 91.5375C81.6017 91.5375 83.0915 90.0138 83.0915 88.1514C83.0915 86.2891 81.5678 84.7654 79.7054 84.7654Z" fill="#00b671"/>
<path d="M47.5365 76.3005C49.4066 76.3005 50.9226 74.7845 50.9226 72.9144C50.9226 71.0443 49.4066 69.5283 47.5365 69.5283C45.6664 69.5283 44.1504 71.0443 44.1504 72.9144C44.1504 74.7845 45.6664 76.3005 47.5365 76.3005Z" fill="#A2DBC8"/>
</g>
<defs>
<clipPath id="clip0_3903_25725">
<rect width="112" height="112" fill="white"/>
</clipPath>
</defs>
</svg>
